<svg width="282" height="39" viewBox="0 0 282 39" fill="none" xmlns="http://www.w3.org/2000/svg">
<path d="M130.847 33.6974C130.847 35.723 129.172 37.3639 127.1 37.3639H4.48293C2.4121 37.3639 0.731201 35.723 0.731201 33.6974V4.4583C0.731201 2.43359 2.4121 0.787018 4.48293 0.787018H127.099C129.172 0.787018 130.846 2.43359 130.846 4.4583L130.847 33.6974Z" fill="black"/>
<path d="M126.704 0.830382C128.96 0.830382 130.796 2.62047 130.796 4.82037V33.3288C130.796 35.5287 128.96 37.3188 126.704 37.3188H4.87323C2.61693 37.3188 0.780936 35.5287 0.780936 33.3288V4.82037C0.780936 2.62047 2.61693 0.830382 4.87323 0.830382H126.704ZM126.704 0.0689705H4.87323C2.19417 0.0689705 0 2.20829 0 4.82037V33.3288C0 35.9409 2.19417 38.0802 4.87323 38.0802H126.704C129.383 38.0802 131.577 35.9409 131.577 33.3288V4.82037C131.577 2.20829 129.383 0.0689705 126.704 0.0689705Z" fill="#CCCCCC"/>
<path d="M29.3641 18.8694C29.3358 15.8066 31.9362 14.3166 32.0551 14.2472C30.5824 12.1538 28.2998 11.8677 27.4976 11.8449C25.5805 11.6482 23.7209 12.9634 22.7443 12.9634C21.7482 12.9634 20.2443 11.8639 18.6235 11.8962C16.5377 11.9276 14.5865 13.105 13.5163 14.9333C11.3078 18.6613 12.9549 24.1397 15.0709 27.153C16.1294 28.6288 17.3662 30.2766 18.9851 30.2186C20.5689 30.1549 21.1605 29.2341 23.0718 29.2341C24.9655 29.2341 25.5211 30.2186 27.1721 30.1815C28.8719 30.1549 29.9421 28.6991 30.9635 27.21C32.1867 25.5185 32.6779 23.8527 32.6974 23.7671C32.6574 23.7538 29.3963 22.5403 29.3641 18.8694Z" fill="white"/>
<path d="M26.2452 9.86263C27.0971 8.82397 27.6799 7.4109 27.5181 5.97693C26.2852 6.03014 24.7433 6.80843 23.8554 7.82428C23.0698 8.71944 22.3681 10.1867 22.5494 11.5665C23.9343 11.6672 25.3563 10.8851 26.2452 9.86263Z" fill="white"/>
<path d="M52.2856 30.0075H50.0722L48.8597 26.2928H44.6454L43.4904 30.0075H41.3354L45.5109 17.3611H48.0898L52.2856 30.0075ZM48.4943 24.7344L47.3978 21.4321C47.2818 21.0948 47.0644 20.3004 46.7438 19.0498H46.7048C46.5771 19.5877 46.3715 20.3821 46.0888 21.4321L45.0118 24.7344H48.4943V24.7344Z" fill="white"/>
<path d="M63.0227 25.3359C63.0227 26.8868 62.5929 28.1127 61.7332 29.0126C60.9632 29.8137 60.0071 30.2137 58.8658 30.2137C57.6338 30.2137 56.7488 29.7823 56.2098 28.9194H56.1708V33.7231H54.0929V23.8906C54.0929 22.9156 54.0666 21.9149 54.0159 20.8886H55.8434L55.9593 22.334H55.9983C56.6913 21.245 57.743 20.7014 59.1543 20.7014C60.2576 20.7014 61.1786 21.1262 61.9155 21.9767C62.6543 22.8281 63.0227 23.9476 63.0227 25.3359ZM60.9057 25.4101C60.9057 24.5225 60.7011 23.7908 60.2898 23.2149C59.8404 22.6143 59.2371 22.314 58.4808 22.314C57.9681 22.314 57.5022 22.4813 57.086 22.811C56.6689 23.1436 56.396 23.5779 56.2683 24.1158C56.204 24.3666 56.1718 24.5719 56.1718 24.7335V26.2539C56.1718 26.9172 56.3804 27.4769 56.7975 27.934C57.2147 28.3911 57.7566 28.6192 58.4233 28.6192C59.2059 28.6192 59.8151 28.3246 60.2508 27.7373C60.6874 27.1491 60.9057 26.3736 60.9057 25.4101Z" fill="white"/>
<path d="M73.7803 25.3359C73.7803 26.8868 73.3505 28.1127 72.4898 29.0126C71.7208 29.8137 70.7647 30.2137 69.6233 30.2137C68.3914 30.2137 67.5064 29.7823 66.9684 28.9194H66.9294V33.7231H64.8514V23.8906C64.8514 22.9156 64.8251 21.9149 64.7744 20.8886H66.6019L66.7179 22.334H66.7569C67.4489 21.245 68.5005 20.7014 69.9128 20.7014C71.0152 20.7014 71.9362 21.1262 72.675 21.9767C73.4109 22.8281 73.7803 23.9476 73.7803 25.3359ZM71.6633 25.4101C71.6633 24.5225 71.4577 23.7908 71.0464 23.2149C70.597 22.6143 69.9957 22.314 69.2384 22.314C68.7247 22.314 68.2598 22.4813 67.8426 22.811C67.4255 23.1436 67.1536 23.5779 67.0259 24.1158C66.9625 24.3666 66.9294 24.5719 66.9294 24.7335V26.2539C66.9294 26.9172 67.138 27.4769 67.5532 27.934C67.9703 28.3901 68.5122 28.6192 69.1809 28.6192C69.9635 28.6192 70.5727 28.3246 71.0083 27.7373C71.445 27.1491 71.6633 26.3736 71.6633 25.4101Z" fill="white"/>
<path d="M85.8076 26.4611C85.8076 27.5368 85.4246 28.412 84.6556 29.0877C83.8106 29.8261 82.6343 30.1948 81.1227 30.1948C79.727 30.1948 78.6082 29.9325 77.7612 29.407L78.2427 27.7183C79.1549 28.2562 80.1559 28.5261 81.2464 28.5261C82.0291 28.5261 82.6382 28.3531 83.0758 28.0091C83.5114 27.6651 83.7288 27.2033 83.7288 26.6274C83.7288 26.1143 83.5494 25.6819 83.1898 25.3312C82.8321 24.9806 82.2347 24.6546 81.4004 24.3534C79.1296 23.5276 77.9951 22.3179 77.9951 20.7271C77.9951 19.6875 78.3928 18.8351 79.189 18.1718C79.9824 17.5076 81.0408 17.1759 82.3643 17.1759C83.5446 17.1759 84.525 17.3764 85.3076 17.7765L84.7882 19.4281C84.0572 19.0404 83.2307 18.8465 82.3058 18.8465C81.5749 18.8465 81.0038 19.0223 80.5944 19.372C80.2484 19.6846 80.075 20.0657 80.075 20.5171C80.075 21.0169 80.2728 21.4303 80.6704 21.7553C81.0164 22.0556 81.6451 22.3806 82.5573 22.7313C83.6732 23.1693 84.4929 23.6815 85.0201 24.2688C85.5454 24.8542 85.8076 25.5868 85.8076 26.4611Z" fill="white"/>
<path d="M92.6772 22.409H90.3868V26.8364C90.3868 27.9625 90.7903 28.525 91.5993 28.525C91.9706 28.525 92.2786 28.4937 92.5223 28.431L92.5798 29.9695C92.1704 30.1187 91.6315 30.1937 90.9638 30.1937C90.1432 30.1937 89.5019 29.9495 89.0389 29.462C88.5779 28.9736 88.3459 28.1544 88.3459 27.0036V22.4071H86.9814V20.8867H88.3459V19.217L90.3868 18.6165V20.8867H92.6772V22.409Z" fill="white"/>
<path d="M103.011 25.3731C103.011 26.7747 102.6 27.9255 101.779 28.8254C100.919 29.752 99.7764 30.2138 98.3525 30.2138C96.9802 30.2138 95.8876 29.77 95.0728 28.8825C94.258 27.9949 93.8506 26.8745 93.8506 25.5242C93.8506 24.1111 94.2697 22.9537 95.1108 22.0538C95.95 21.1529 97.0825 20.7025 98.5064 20.7025C99.8787 20.7025 100.983 21.1462 101.816 22.0347C102.614 22.8967 103.011 24.0094 103.011 25.3731ZM100.855 25.4386C100.855 24.5977 100.671 23.8764 100.298 23.2749C99.8622 22.5469 99.2394 22.1839 98.4324 22.1839C97.5971 22.1839 96.9626 22.5479 96.5269 23.2749C96.1537 23.8773 95.9695 24.61 95.9695 25.4767C95.9695 26.3177 96.1537 27.0389 96.5269 27.6395C96.9763 28.3674 97.6039 28.7304 98.4139 28.7304C99.2072 28.7304 99.83 28.3598 100.279 27.6205C100.662 27.0076 100.855 26.2787 100.855 25.4386Z" fill="white"/>
<path d="M109.766 22.6704C109.56 22.6333 109.341 22.6143 109.111 22.6143C108.38 22.6143 107.815 22.8833 107.417 23.4221C107.071 23.8972 106.898 24.4978 106.898 25.2228V30.0075H104.821L104.84 23.7604C104.84 22.7094 104.814 21.7524 104.762 20.8896H106.572L106.648 22.6343H106.706C106.925 22.0347 107.271 21.5519 107.745 21.1899C108.208 20.8639 108.708 20.7014 109.247 20.7014C109.439 20.7014 109.612 20.7147 109.766 20.7385V22.6704Z" fill="white"/>
<path d="M119.06 25.0167C119.06 25.3797 119.036 25.6857 118.984 25.9356H112.75C112.775 26.8365 113.076 27.5254 113.655 28.0006C114.18 28.4254 114.86 28.6382 115.694 28.6382C116.617 28.6382 117.459 28.4947 118.216 28.2068L118.542 29.6132C117.657 29.9895 116.612 30.1767 115.406 30.1767C113.956 30.1767 112.818 29.7605 111.989 28.929C111.163 28.0975 110.749 26.9809 110.749 25.5802C110.749 24.2052 111.134 23.0601 111.904 22.1469C112.711 21.1719 113.802 20.6844 115.174 20.6844C116.522 20.6844 117.543 21.1719 118.236 22.1469C118.784 22.9213 119.06 23.8792 119.06 25.0167ZM117.079 24.4912C117.092 23.8906 116.957 23.3718 116.675 22.9337C116.316 22.3702 115.763 22.0889 115.019 22.0889C114.34 22.0889 113.787 22.3635 113.365 22.9147C113.019 23.3528 112.814 23.8783 112.75 24.4903H117.079V24.4912Z" fill="white"/>
<path d="M47.8057 9.58061C47.8057 10.6991 47.4616 11.541 46.7745 12.1064C46.138 12.6281 45.2336 12.8895 44.062 12.8895C43.4811 12.8895 42.984 12.8648 42.5679 12.8153V6.70413C43.1108 6.6186 43.6955 6.57489 44.3271 6.57489C45.4431 6.57489 46.2842 6.81151 46.8515 7.28475C47.487 7.81975 47.8057 8.58472 47.8057 9.58061ZM46.7287 9.60817C46.7287 8.88311 46.5318 8.3272 46.138 7.93948C45.7443 7.55272 45.1692 7.35887 44.4119 7.35887C44.0903 7.35887 43.8164 7.37977 43.5893 7.42349V12.0694C43.715 12.0884 43.9451 12.0969 44.2794 12.0969C45.061 12.0969 45.6644 11.885 46.0893 11.4612C46.5142 11.0374 46.7287 10.4197 46.7287 9.60817Z" fill="white"/>
<path d="M53.5166 10.5573C53.5166 11.2463 53.3148 11.8108 52.9113 12.2536C52.4883 12.7088 51.9279 12.9359 51.2281 12.9359C50.5536 12.9359 50.0166 12.7183 49.616 12.2811C49.2164 11.845 49.0166 11.2948 49.0166 10.6315C49.0166 9.93776 49.2223 9.36854 49.6355 8.92666C50.0488 8.48478 50.6043 8.26337 51.3041 8.26337C51.9786 8.26337 52.5205 8.48098 52.9308 8.91716C53.3207 9.34098 53.5166 9.88834 53.5166 10.5573ZM52.4571 10.5896C52.4571 10.1763 52.3655 9.82182 52.1833 9.52629C51.9688 9.16898 51.6638 8.99033 51.2671 8.99033C50.8568 8.99033 50.5449 9.16898 50.3304 9.52629C50.1472 9.82182 50.0566 10.182 50.0566 10.6077C50.0566 11.0211 50.1482 11.3755 50.3304 11.6711C50.5517 12.0284 50.8597 12.207 51.2573 12.207C51.6472 12.207 51.9532 12.0255 52.1735 11.6616C52.3626 11.3603 52.4571 11.003 52.4571 10.5896Z" fill="white"/>
<path d="M61.1729 8.35474L59.7353 12.8344H58.7996L58.2041 10.8891C58.0531 10.4035 57.9302 9.9208 57.8347 9.44186H57.8162C57.7275 9.9341 57.6047 10.4159 57.4468 10.8891L56.8143 12.8344H55.8679L54.5161 8.35474H55.5658L56.0853 10.4843C56.211 10.988 56.3143 11.4678 56.3972 11.9221H56.4157C56.4917 11.5477 56.6174 11.0706 56.7948 10.4938L57.4468 8.35569H58.2792L58.9039 10.4482C59.055 10.9585 59.1778 11.4498 59.2723 11.923H59.3006C59.3698 11.4621 59.4741 10.9709 59.6125 10.4482L60.17 8.35569H61.1729V8.35474Z" fill="white"/>
<path d="M66.469 12.8345H65.4475V10.2688C65.4475 9.47817 65.1395 9.08285 64.5216 9.08285C64.2185 9.08285 63.9738 9.19118 63.7838 9.4088C63.5957 9.62641 63.5001 9.88298 63.5001 10.1766V12.8336H62.4787V9.63496C62.4787 9.24155 62.466 8.81487 62.4417 8.35304H63.3393L63.3871 9.05339H63.4153C63.5343 8.83578 63.7116 8.65618 63.9446 8.51269C64.2214 8.34544 64.5313 8.26086 64.8705 8.26086C65.2994 8.26086 65.6561 8.3958 65.9397 8.66663C66.2926 8.99828 66.469 9.49337 66.469 10.151V12.8345V12.8345Z" fill="white"/>
<path d="M69.2847 12.8344H68.2642V6.29932H69.2847V12.8344Z" fill="white"/>
<path d="M75.2976 10.5573C75.2976 11.2463 75.0959 11.8108 74.6924 12.2536C74.2694 12.7088 73.708 12.9359 73.0092 12.9359C72.3338 12.9359 71.7968 12.7183 71.3972 12.2811C70.9976 11.845 70.7979 11.2948 70.7979 10.6315C70.7979 9.93776 71.0035 9.36854 71.4167 8.92666C71.83 8.48478 72.3855 8.26337 73.0843 8.26337C73.7597 8.26337 74.3006 8.48098 74.7119 8.91716C75.1017 9.34098 75.2976 9.88834 75.2976 10.5573ZM74.2372 10.5896C74.2372 10.1763 74.1456 9.82182 73.9634 9.52629C73.7499 9.16898 73.4439 8.99033 73.0482 8.99033C72.6369 8.99033 72.3251 9.16898 72.1116 9.52629C71.9284 9.82182 71.8378 10.182 71.8378 10.6077C71.8378 11.0211 71.9294 11.3755 72.1116 11.6711C72.3329 12.0284 72.6408 12.207 73.0385 12.207C73.4283 12.207 73.7334 12.0255 73.9536 11.6616C74.1437 11.3603 74.2372 11.003 74.2372 10.5896Z" fill="white"/>
<path d="M80.2422 12.8342H79.325L79.249 12.3182H79.2207C78.9069 12.7297 78.4595 12.9359 77.8786 12.9359C77.4449 12.9359 77.094 12.8 76.8299 12.5301C76.5901 12.2849 76.4702 11.9799 76.4702 11.6178C76.4702 11.0705 76.7041 10.6533 77.1749 10.3644C77.6447 10.0755 78.3055 9.93395 79.1564 9.94061V9.85698C79.1564 9.26686 78.8387 8.97227 78.2022 8.97227C77.749 8.97227 77.3494 9.08346 77.0043 9.30392L76.7967 8.65013C77.2236 8.3926 77.7509 8.26337 78.3728 8.26337C79.5736 8.26337 80.1759 8.88105 80.1759 10.1164V11.7661C80.1759 12.2137 80.1983 12.57 80.2422 12.8342ZM79.1817 11.2948V10.6039C78.055 10.5849 77.4917 10.8861 77.4917 11.5067C77.4917 11.7404 77.556 11.9153 77.6876 12.0322C77.8192 12.1491 77.9868 12.207 78.1866 12.207C78.4108 12.207 78.6203 12.1376 78.8114 11.9999C79.0034 11.8611 79.1213 11.6853 79.1652 11.4696C79.1759 11.4211 79.1817 11.3622 79.1817 11.2948Z" fill="white"/>
<path d="M86.0457 12.8344H85.1393L85.0916 12.1151H85.0633C84.7739 12.6624 84.2807 12.9361 83.5878 12.9361C83.0343 12.9361 82.5733 12.7242 82.2079 12.3004C81.8424 11.8765 81.6602 11.3263 81.6602 10.6507C81.6602 9.9256 81.858 9.33832 82.2556 8.88979C82.6406 8.47166 83.1122 8.2626 83.6736 8.2626C84.2905 8.2626 84.7222 8.46501 84.9678 8.87078H84.9873V6.29932H86.0096V11.6276C86.0096 12.0637 86.0213 12.4657 86.0457 12.8344ZM84.9873 10.9453V10.1983C84.9873 10.0691 84.9775 9.96456 84.959 9.88474C84.9015 9.64526 84.7778 9.4438 84.5897 9.28131C84.3996 9.11881 84.1706 9.03708 83.9065 9.03708C83.5254 9.03708 83.2272 9.18438 83.008 9.47992C82.7906 9.77545 82.6805 10.1527 82.6805 10.6136C82.6805 11.0564 82.7848 11.4156 82.9943 11.6922C83.2155 11.9868 83.5138 12.1341 83.887 12.1341C84.2223 12.1341 84.4903 12.0115 84.6939 11.7653C84.8908 11.5382 84.9873 11.2645 84.9873 10.9453Z" fill="white"/>
<path d="M94.7815 10.5573C94.7815 11.2463 94.5797 11.8108 94.1763 12.2536C93.7533 12.7088 93.1939 12.9359 92.4931 12.9359C91.8197 12.9359 91.2827 12.7183 90.8811 12.2811C90.4815 11.845 90.2817 11.2948 90.2817 10.6315C90.2817 9.93776 90.4874 9.36854 90.9006 8.92666C91.3138 8.48478 91.8694 8.26337 92.5701 8.26337C93.2436 8.26337 93.7864 8.48098 94.1958 8.91716C94.5856 9.34098 94.7815 9.88834 94.7815 10.5573ZM93.7231 10.5896C93.7231 10.1763 93.6315 9.82182 93.4492 9.52629C93.2338 9.16898 92.9297 8.99033 92.5321 8.99033C92.1228 8.99033 91.8109 9.16898 91.5955 9.52629C91.4123 9.82182 91.3216 10.182 91.3216 10.6077C91.3216 11.0211 91.4133 11.3755 91.5955 11.6711C91.8167 12.0284 92.1247 12.207 92.5224 12.207C92.9122 12.207 93.2192 12.0255 93.4395 11.6616C93.6276 11.3603 93.7231 11.003 93.7231 10.5896Z" fill="white"/>
<path d="M100.273 12.8345H99.253V10.2688C99.253 9.47817 98.945 9.08285 98.326 9.08285C98.0229 9.08285 97.7783 9.19118 97.5892 9.4088C97.4001 9.62641 97.3056 9.88298 97.3056 10.1766V12.8336H96.2831V9.63496C96.2831 9.24155 96.2714 8.81487 96.2471 8.35304H97.1438L97.1915 9.05339H97.2198C97.3397 8.83578 97.5171 8.65618 97.749 8.51269C98.0268 8.34544 98.3358 8.26086 98.676 8.26086C99.1038 8.26086 99.4606 8.3958 99.7442 8.66663C100.098 8.99828 100.273 9.49337 100.273 10.151V12.8345V12.8345Z" fill="white"/>
<path d="M107.149 9.10049H106.024V11.2766C106.024 11.8297 106.224 12.1062 106.62 12.1062C106.803 12.1062 106.955 12.091 107.075 12.0597L107.101 12.8151C106.899 12.8893 106.634 12.9263 106.308 12.9263C105.904 12.9263 105.59 12.8066 105.363 12.5671C105.135 12.3277 105.022 11.9247 105.022 11.3593V9.10049H104.351V8.35452H105.022V7.53348L106.023 7.23889V8.35357H107.148V9.10049H107.149Z" fill="white"/>
<path d="M112.555 12.8344H111.533V10.2877C111.533 9.48466 111.225 9.08269 110.608 9.08269C110.134 9.08269 109.81 9.31551 109.633 9.78115C109.603 9.87903 109.585 9.99877 109.585 10.1394V12.8335H108.565V6.29932H109.585V8.99907H109.605C109.926 8.50777 110.387 8.2626 110.985 8.2626C111.408 8.2626 111.758 8.39754 112.035 8.66837C112.381 9.00572 112.555 9.50747 112.555 10.1708V12.8344V12.8344Z" fill="white"/>
<path d="M118.133 10.3825C118.133 10.5612 118.12 10.7113 118.095 10.8339H115.032C115.046 11.2767 115.192 11.6141 115.476 11.8479C115.735 12.0569 116.069 12.1614 116.478 12.1614C116.932 12.1614 117.345 12.0911 117.717 11.9495L117.877 12.6413C117.441 12.8257 116.929 12.9179 116.335 12.9179C115.624 12.9179 115.063 12.7136 114.658 12.3049C114.251 11.8963 114.049 11.348 114.049 10.66C114.049 9.98434 114.237 9.42177 114.616 8.97324C115.012 8.49429 115.547 8.25482 116.222 8.25482C116.883 8.25482 117.385 8.49429 117.724 8.97324C117.998 9.35335 118.133 9.82374 118.133 10.3825ZM117.159 10.125C117.167 9.82945 117.099 9.57477 116.961 9.36001C116.784 9.08347 116.514 8.94473 116.148 8.94473C115.815 8.94473 115.543 9.07967 115.335 9.3505C115.166 9.56622 115.065 9.82374 115.032 10.125H117.159Z" fill="white"/>
<path d="M276.281 38.1327H154.451C151.772 38.1327 149.577 35.9904 149.577 33.3747V4.82707C149.577 2.21139 151.772 0.069124 154.451 0.069124H276.281C278.96 0.069124 281.155 2.21139 281.155 4.82707V33.3747C281.155 35.9904 278.96 38.1327 276.281 38.1327Z" fill="black"/>
<path d="M276.281 0.831583C278.538 0.831583 280.374 2.62414 280.374 4.82707V33.3747C280.374 35.5777 278.538 37.3702 276.281 37.3702H154.451C152.194 37.3702 150.358 35.5777 150.358 33.3747V4.82707C150.358 2.62414 152.194 0.831583 154.451 0.831583H276.281ZM276.281 0.069124H154.451C151.772 0.069124 149.577 2.21139 149.577 4.82707V33.3747C149.577 35.9904 151.772 38.1327 154.451 38.1327H276.281C278.96 38.1327 281.155 35.9904 281.155 33.3747V4.82707C281.155 2.21139 278.96 0.069124 276.281 0.069124Z" fill="#CCCCCC"/>
<path d="M195.792 9.8166C195.792 10.6112 195.549 11.2476 195.069 11.7222C194.517 12.2848 193.798 12.5679 192.917 12.5679C192.075 12.5679 191.357 12.28 190.767 11.7126C190.176 11.1369 189.881 10.4304 189.881 9.58466C189.881 8.73894 190.176 8.03239 190.767 7.46143C191.357 6.8893 192.075 6.60144 192.917 6.60144C193.336 6.60144 193.736 6.68589 194.117 6.8429C194.497 7.00111 194.807 7.21521 195.031 7.47928L194.522 7.98124C194.131 7.53043 193.598 7.30799 192.917 7.30799C192.303 7.30799 191.771 7.51734 191.319 7.93961C190.872 8.36306 190.647 8.91141 190.647 9.58466C190.647 10.2579 190.872 10.811 191.319 11.2345C191.771 11.652 192.303 11.8661 192.917 11.8661C193.569 11.8661 194.117 11.652 194.55 11.2297C194.835 10.9502 194.997 10.5648 195.04 10.0723H192.917V9.38482H195.749C195.783 9.53351 195.792 9.67744 195.792 9.8166V9.8166Z" fill="white"/>
<path fill-rule="evenodd" clip-rule="evenodd" d="M192.917 6.70053C192.101 6.70053 191.408 6.97854 190.837 7.53215C190.266 8.08374 189.981 8.76456 189.981 9.58467C189.981 10.4046 190.266 11.0854 190.837 11.6419C191.407 12.1908 192.101 12.4688 192.917 12.4688C193.774 12.4688 194.466 12.1944 194.997 11.6532L194.998 11.6521C195.456 11.1993 195.692 10.5898 195.692 9.81662C195.692 9.70695 195.686 9.59636 195.666 9.48391H193.017V9.97328H195.149L195.139 10.0808C195.095 10.5905 194.926 11.0001 194.62 11.3001C194.168 11.742 193.593 11.9652 192.917 11.9652C192.277 11.9652 191.72 11.7409 191.25 11.3069C190.781 10.8627 190.547 10.2818 190.547 9.58467C190.547 8.88733 190.78 8.31215 191.249 7.86808C191.72 7.42856 192.277 7.20893 192.917 7.20893C193.583 7.20893 194.12 7.41506 194.525 7.83755L194.893 7.47498C194.687 7.25574 194.413 7.07348 194.078 6.93429C193.709 6.78205 193.322 6.70053 192.917 6.70053ZM190.697 7.39068C191.305 6.80005 192.05 6.50238 192.917 6.50238C193.35 6.50238 193.763 6.58973 194.156 6.75146C194.548 6.91452 194.871 7.13725 195.108 7.41561L195.167 7.48525L194.516 8.12683L194.446 8.04574C194.076 7.62007 193.573 7.40708 192.917 7.40708C192.329 7.40708 191.821 7.60654 191.388 8.01139C190.963 8.4142 190.748 8.93564 190.748 9.58467C190.748 10.2338 190.963 10.7599 191.388 11.1625C191.822 11.5632 192.33 11.767 192.917 11.767C193.545 11.767 194.067 11.5618 194.479 11.1592C194.723 10.9201 194.874 10.5939 194.928 10.1714H192.817V9.28576H195.829L195.846 9.36293C195.883 9.52113 195.893 9.67293 195.893 9.81662C195.893 10.6323 195.642 11.2954 195.14 11.7917C194.567 12.3754 193.822 12.667 192.917 12.667C192.05 12.667 191.305 12.3693 190.697 11.7836C190.086 11.1887 189.781 10.4561 189.781 9.58467C189.781 8.71337 190.086 7.98098 190.697 7.39068Z" fill="white"/>
<path d="M200.284 7.43303H197.625V9.24105H200.022V9.92857H197.625V11.7366H200.284V12.4372H196.872V6.73242H200.284V7.43303Z" fill="white"/>
<path fill-rule="evenodd" clip-rule="evenodd" d="M196.771 6.63336H200.384V7.53211H197.725V9.14199H200.122V10.0277H197.725V11.6375H200.384V12.5363H196.771V6.63336ZM196.972 6.83151V12.3381H200.184V11.8357H197.524V9.82951H199.922V9.34013H197.524V7.33397H200.184V6.83151H196.972Z" fill="white"/>
<path d="M203.455 12.4372H202.702V7.43303H201.071V6.73242H205.087V7.43303H203.455V12.4372V12.4372Z" fill="white"/>
<path fill-rule="evenodd" clip-rule="evenodd" d="M200.97 6.63336H205.187V7.53211H203.555V12.4372H203.455V12.5363H202.602V7.53211H200.97V6.63336ZM203.354 12.3381V7.33397H204.987V6.83151H201.171V7.33397H202.802V12.3381H203.354Z" fill="white"/>
<path d="M207.993 12.4372V6.73242H208.745V12.4372H207.993Z" fill="white"/>
<path fill-rule="evenodd" clip-rule="evenodd" d="M207.893 6.63336H208.845V12.5363H207.893V6.63336ZM208.093 6.83151V12.3381H208.645V6.83151H208.093Z" fill="white"/>
<path d="M212.077 12.4372H211.33V7.43303H209.693V6.73242H213.714V7.43303H212.077V12.4372Z" fill="white"/>
<path fill-rule="evenodd" clip-rule="evenodd" d="M209.593 6.63336H213.815V7.53211H212.177V12.5363H211.23V7.53211H209.593V6.63336ZM209.793 6.83151V7.33397H211.43V12.3381H211.977V7.33397H213.614V6.83151H209.793Z" fill="white"/>
<path d="M221.319 11.7031C220.743 12.28 220.029 12.5679 219.177 12.5679C218.321 12.5679 217.607 12.28 217.031 11.7031C216.456 11.1274 216.169 10.4209 216.169 9.58466C216.169 8.74845 216.456 8.0419 217.031 7.46619C217.607 6.88929 218.321 6.60144 219.177 6.60144C220.024 6.60144 220.738 6.88929 221.314 7.47095C221.894 8.05142 222.181 8.75321 222.181 9.58466C222.181 10.4209 221.894 11.1274 221.319 11.7031ZM217.588 11.2249C218.021 11.652 218.549 11.8661 219.177 11.8661C219.801 11.8661 220.334 11.652 220.762 11.2249C221.195 10.7979 221.414 10.2496 221.414 9.58466C221.414 8.91974 221.195 8.37139 220.762 7.94436C220.334 7.51734 219.801 7.30323 219.177 7.30323C218.549 7.30323 218.021 7.51734 217.588 7.94436C217.155 8.37139 216.936 8.91974 216.936 9.58466C216.936 10.2496 217.155 10.7979 217.588 11.2249V11.2249Z" fill="white"/>
<path fill-rule="evenodd" clip-rule="evenodd" d="M219.177 6.70053C218.346 6.70053 217.659 6.97865 217.102 7.53581C216.546 8.0922 216.27 8.77341 216.27 9.58467C216.27 10.3959 216.546 11.0771 217.102 11.6335C217.659 12.1907 218.346 12.4688 219.177 12.4688C220.003 12.4688 220.691 12.1907 221.248 11.6335C221.804 11.0771 222.08 10.3959 222.08 9.58467C222.08 8.77855 221.804 8.10198 221.243 7.54057L221.243 7.54028C220.686 6.97849 219.998 6.70053 219.177 6.70053ZM216.959 7.3966C217.555 6.79996 218.295 6.50238 219.177 6.50238C220.05 6.50238 220.79 6.80008 221.386 7.4015C221.985 8.00099 222.281 8.72796 222.281 9.58467C222.281 10.4458 221.985 11.1777 221.39 11.7727L221.319 11.7031L221.39 11.7727C220.795 12.3693 220.055 12.667 219.177 12.667C218.295 12.667 217.555 12.3694 216.959 11.7727L217.025 11.709L216.959 11.7727C216.365 11.1777 216.069 10.4458 216.069 9.58467C216.069 8.72352 216.365 7.99162 216.959 7.3966L216.959 7.3966ZM217.517 7.87419C217.97 7.42829 218.523 7.20417 219.177 7.20417C219.827 7.20417 220.385 7.4281 220.833 7.87443C221.286 8.32182 221.514 8.89619 221.514 9.58467C221.514 10.2731 221.286 10.8475 220.833 11.2949C220.385 11.7412 219.827 11.9652 219.177 11.9652C218.523 11.9652 217.97 11.7411 217.517 11.2952L217.587 11.225L217.517 11.2951C217.063 10.8477 216.835 10.2732 216.835 9.58467C216.835 8.89611 217.063 8.32169 217.517 7.87429L217.517 7.87419ZM217.658 11.1548C218.073 11.5629 218.575 11.767 219.177 11.767C219.775 11.767 220.282 11.5628 220.691 11.1552L220.691 11.1549C221.103 10.7482 221.314 10.226 221.314 9.58467C221.314 8.94339 221.103 8.42111 220.691 8.01447L220.691 8.01417C220.282 7.60655 219.775 7.40232 219.177 7.40232C218.575 7.40232 218.073 7.60642 217.658 8.01455C217.246 8.42118 217.036 8.94343 217.036 9.58467C217.036 10.2259 217.246 10.7481 217.658 11.1548Z" fill="white"/>
<path d="M223.237 12.4372V6.73242H224.151L226.992 11.1692H227.025L226.992 10.0725V6.73242H227.744V12.4372H226.959L223.984 7.78155H223.951L223.984 8.88301V12.4372H223.237V12.4372Z" fill="white"/>
<path fill-rule="evenodd" clip-rule="evenodd" d="M223.137 6.63336H224.206L226.916 10.8645L226.892 10.0725L226.892 6.63336H227.844V12.5363H226.904L224.061 8.0868L224.084 8.88302L224.084 12.5363H223.237V12.4372H223.137V6.63336ZM223.337 12.3381H223.884V8.88448L223.848 7.68249H224.039L227.014 12.3381H227.644V6.83151H227.092V10.071L227.128 11.2683H226.937L224.096 6.83151H223.337V12.3381Z" fill="white"/>
<path d="M215.985 20.7686C213.695 20.7686 211.825 22.4695 211.825 24.8164C211.825 27.1442 213.695 28.863 215.985 28.863C218.279 28.863 220.149 27.1442 220.149 24.8164C220.149 22.4695 218.279 20.7686 215.985 20.7686ZM215.985 27.2691C214.729 27.2691 213.648 26.2569 213.648 24.8164C213.648 23.3569 214.729 22.3625 215.985 22.3625C217.241 22.3625 218.326 23.3569 218.326 24.8164C218.326 26.2569 217.241 27.2691 215.985 27.2691V27.2691ZM206.91 20.7686C204.615 20.7686 202.75 22.4695 202.75 24.8164C202.75 27.1442 204.615 28.863 206.91 28.863C209.202 28.863 211.069 27.1442 211.069 24.8164C211.069 22.4695 209.202 20.7686 206.91 20.7686ZM206.91 27.2691C205.652 27.2691 204.568 26.2569 204.568 24.8164C204.568 23.3569 205.652 22.3625 206.91 22.3625C208.166 22.3625 209.246 23.3569 209.246 24.8164C209.246 26.2569 208.166 27.2691 206.91 27.2691ZM196.11 22.0092V23.7292H200.317C200.194 24.6903 199.865 25.3969 199.361 25.8893C198.747 26.484 197.79 27.1442 196.11 27.1442C193.522 27.1442 191.494 25.1042 191.494 22.5766C191.494 20.0489 193.522 18.009 196.11 18.009C197.51 18.009 198.529 18.543 199.28 19.2353L200.522 18.0232C199.471 17.0431 198.072 16.2902 196.11 16.2902C192.56 16.2902 189.577 19.1104 189.577 22.5766C189.577 26.0427 192.56 28.863 196.11 28.863C198.029 28.863 199.471 28.2492 200.604 27.0978C201.765 25.9642 202.126 24.3703 202.126 23.0833C202.126 22.6836 202.092 22.3161 202.031 22.0092H196.11ZM240.269 23.3426C239.927 22.4374 238.871 20.7686 236.719 20.7686C234.587 20.7686 232.812 22.4089 232.812 24.8164C232.812 27.0835 234.569 28.863 236.924 28.863C238.828 28.863 239.927 27.7294 240.379 27.0693L238.966 26.1498C238.494 26.823 237.852 27.2691 236.924 27.2691C236.001 27.2691 235.34 26.8564 234.916 26.0427L240.46 23.8029L240.269 23.3426V23.3426ZM234.616 24.6903C234.569 23.1297 235.858 22.3304 236.781 22.3304C237.505 22.3304 238.119 22.6836 238.324 23.1892L234.616 24.6903V24.6903ZM230.11 28.6168H231.932V16.7219H230.11V28.6168ZM227.125 21.6702H227.064C226.655 21.1968 225.874 20.7686 224.884 20.7686C222.808 20.7686 220.91 22.548 220.91 24.8295C220.91 27.0978 222.808 28.863 224.884 28.863C225.874 28.863 226.655 28.4312 227.064 27.9435H227.125V28.524C227.125 30.0715 226.278 30.903 224.912 30.903C223.799 30.903 223.108 30.1179 222.823 29.4578L221.238 30.1036C221.695 31.1766 222.905 32.4969 224.912 32.4969C227.049 32.4969 228.852 31.2693 228.852 28.2825V21.0148H227.125V21.6702V21.6702ZM225.04 27.2691C223.784 27.2691 222.733 26.2426 222.733 24.8295C222.733 23.4033 223.784 22.3625 225.04 22.3625C226.278 22.3625 227.254 23.4033 227.254 24.8295C227.254 26.2426 226.278 27.2691 225.04 27.2691V27.2691ZM248.802 16.7219H244.443V28.6168H246.261V24.1098H248.802C250.821 24.1098 252.801 22.6836 252.801 20.4153C252.801 18.1481 250.816 16.7219 248.802 16.7219V16.7219ZM248.85 22.4553H246.261V18.3765H248.85C250.207 18.3765 250.982 19.4768 250.982 20.4153C250.982 21.336 250.207 22.4553 248.85 22.4553ZM260.086 20.746C258.773 20.746 257.407 21.3122 256.846 22.5671L258.459 23.2272C258.806 22.5671 259.444 22.353 260.119 22.353C261.062 22.353 262.018 22.9061 262.033 23.8826V24.0075C261.704 23.822 261 23.5472 260.134 23.5472C258.396 23.5472 256.626 24.481 256.626 26.2235C256.626 27.8175 258.049 28.844 259.649 28.844C260.872 28.844 261.547 28.3051 261.971 27.6783H262.033V28.5978H263.789V24.0349C263.789 21.9259 262.176 20.746 260.086 20.746ZM259.867 27.2643C259.272 27.2643 258.444 26.9765 258.444 26.2569C258.444 25.3362 259.477 24.9829 260.371 24.9829C261.172 24.9829 261.547 25.1554 262.033 25.3826C261.891 26.484 260.92 27.2643 259.867 27.2643V27.2643ZM270.185 21.0065L268.095 26.1629H268.033L265.873 21.0065H263.913L267.158 28.2124L265.307 32.2221H267.206L272.207 21.0065H270.185V21.0065ZM253.8 28.6168H255.622V16.7219H253.8V28.6168Z" fill="white"/>
<path d="M159.747 7.24276C159.461 7.53537 159.295 7.99094 159.295 8.58093V29.6253C159.295 30.2153 159.461 30.6709 159.747 30.9635L159.818 31.0277L171.896 19.2399V18.9616L159.818 7.17377L159.747 7.24276Z" fill="url(#paint0_linear_23_2049)"/>
<path d="M175.919 23.1711L171.897 19.2398V18.9615L175.924 15.0302L176.014 15.0814L180.783 17.7304C182.143 18.4821 182.143 19.7192 180.783 20.4757L176.014 23.1199L175.919 23.1711V23.1711Z" fill="url(#paint1_linear_23_2049)"/>
<path d="M176.013 23.1203L171.897 19.1011L159.748 30.9638C160.2 31.4277 160.937 31.4836 161.775 31.0197L176.013 23.1203" fill="url(#paint2_linear_23_2049)"/>
<path d="M176.013 15.0817L161.775 7.1823C160.937 6.72316 160.2 6.77906 159.748 7.24296L171.897 19.101L176.013 15.0817Z" fill="url(#paint3_linear_23_2049)"/>
<defs>
<linearGradient id="paint0_linear_23_2049" x1="170.824" y1="29.8445" x2="154.858" y2="13.4922" gradientUnits="userSpaceOnUse">
<stop stop-color="#00A0FF"/>
<stop offset="0.0066" stop-color="#00A1FF"/>
<stop offset="0.2601" stop-color="#00BEFF"/>
<stop offset="0.5122" stop-color="#00D2FF"/>
<stop offset="0.7604" stop-color="#00DFFF"/>
<stop offset="1" stop-color="#00E3FF"/>
</linearGradient>
<linearGradient id="paint1_linear_23_2049" x1="182.555" y1="19.0993" x2="158.971" y2="19.0993" gradientUnits="userSpaceOnUse">
<stop stop-color="#FFE000"/>
<stop offset="0.4087" stop-color="#FFBD00"/>
<stop offset="0.7754" stop-color="#FFA500"/>
<stop offset="1" stop-color="#FF9C00"/>
</linearGradient>
<linearGradient id="paint2_linear_23_2049" x1="173.775" y1="16.9161" x2="152.124" y2="-5.2588" gradientUnits="userSpaceOnUse">
<stop stop-color="#FF3A44"/>
<stop offset="1" stop-color="#C31162"/>
</linearGradient>
<linearGradient id="paint3_linear_23_2049" x1="156.689" y1="37.9651" x2="166.357" y2="28.0631" gradientUnits="userSpaceOnUse">
<stop stop-color="#32A071"/>
<stop offset="0.0685" stop-color="#2DA771"/>
<stop offset="0.4762" stop-color="#15CF74"/>
<stop offset="0.8009" stop-color="#06E775"/>
<stop offset="1" stop-color="#00F076"/>
</linearGradient>
</defs>
</svg>
