<svg width="14" height="17" viewBox="0 0 14 17" fill="none" xmlns="http://www.w3.org/2000/svg">
<path d="M3.86167 7.64292C4.70167 9.6475 6.055 11.2908 7.70583 12.3108L8.98917 10.7525C9.1525 10.5542 9.38 10.4975 9.58417 10.5754C10.2375 10.8375 10.9375 10.9792 11.6667 10.9792C11.8214 10.9792 11.9697 11.0538 12.0791 11.1866C12.1885 11.3195 12.25 11.4996 12.25 11.6875V14.1667C12.25 14.3545 12.1885 14.5347 12.0791 14.6675C11.9697 14.8004 11.8214 14.875 11.6667 14.875C9.0366 14.875 6.51426 13.6063 4.65452 11.3481C2.79479 9.08983 1.75 6.02698 1.75 2.83333C1.75 2.64547 1.81146 2.4653 1.92085 2.33247C2.03025 2.19963 2.17862 2.125 2.33333 2.125H4.375C4.52971 2.125 4.67808 2.19963 4.78748 2.33247C4.89687 2.4653 4.95833 2.64547 4.95833 2.83333C4.95833 3.71875 5.075 4.56875 5.29083 5.36208C5.355 5.61 5.30833 5.88625 5.145 6.08458L3.86167 7.64292Z" fill="white"/>
</svg>
