<svg width="32" height="33" viewBox="0 0 32 33" fill="none" xmlns="http://www.w3.org/2000/svg">
<path d="M23.9492 11.9871C24.7305 11.4011 25.4336 10.698 25.9805 9.87769C25.2773 10.1902 24.457 10.4246 23.6367 10.5027C24.4961 9.99487 25.1211 9.21362 25.4336 8.23706C24.6523 8.70581 23.7539 9.05737 22.8555 9.25269C22.0742 8.43237 21.0195 7.96362 19.8477 7.96362C17.582 7.96362 15.7461 9.79956 15.7461 12.0652C15.7461 12.3777 15.7852 12.6902 15.8633 13.0027C12.4648 12.8074 9.41797 11.1667 7.38672 8.70581C7.03516 9.29175 6.83984 9.99487 6.83984 10.7761C6.83984 12.1824 7.54297 13.4324 8.67578 14.1746C8.01172 14.1355 7.34766 13.9792 6.80078 13.6667V13.7058C6.80078 15.698 8.20703 17.3386 10.082 17.7292C9.76953 17.8074 9.37891 17.8855 9.02734 17.8855C8.75391 17.8855 8.51953 17.8464 8.24609 17.8074C8.75391 19.448 10.2773 20.6199 12.0742 20.6589C10.668 21.7527 8.91016 22.4167 6.99609 22.4167C6.64453 22.4167 6.33203 22.3777 6.01953 22.3386C7.81641 23.5105 9.96484 24.1746 12.3086 24.1746C19.8477 24.1746 23.9492 17.9636 23.9492 12.5339C23.9492 12.3386 23.9492 12.1824 23.9492 11.9871Z" fill="white"/>
</svg>
