<svg width="20" height="21" viewBox="0 0 20 21" fill="none" xmlns="http://www.w3.org/2000/svg">
<path d="M3.33342 17.1666C2.87508 17.1666 2.48258 17.0033 2.15592 16.6766C1.82925 16.3499 1.66619 15.9577 1.66675 15.4999V5.49992C1.66675 5.04159 1.83008 4.64909 2.15675 4.32242C2.48342 3.99575 2.87564 3.8327 3.33342 3.83325H16.6667C17.1251 3.83325 17.5176 3.99659 17.8442 4.32325C18.1709 4.64992 18.334 5.04214 18.3334 5.49992V15.4999C18.3334 15.9583 18.1701 16.3508 17.8434 16.6774C17.5167 17.0041 17.1245 17.1671 16.6667 17.1666H3.33342ZM16.6667 7.16659L10.4376 11.0624C10.3681 11.1041 10.2951 11.1355 10.2184 11.1566C10.1417 11.1777 10.069 11.188 10.0001 11.1874C9.93064 11.1874 9.85758 11.1771 9.78092 11.1566C9.70425 11.136 9.63147 11.1046 9.56258 11.0624L3.33342 7.16659V15.4999H16.6667V7.16659ZM10.0001 9.66659L16.6667 5.49992H3.33342L10.0001 9.66659ZM3.33342 7.37492V6.14575V6.16659V6.15659V7.37492Z" fill="white"/>
</svg>
