<svg width="20" height="21" viewBox="0 0 20 21" fill="none" xmlns="http://www.w3.org/2000/svg">
<path d="M9.99992 10.5001C10.4583 10.5001 10.8508 10.3367 11.1774 10.0101C11.5041 9.68341 11.6671 9.29119 11.6666 8.83341C11.6666 8.37508 11.5033 7.98258 11.1766 7.65591C10.8499 7.32925 10.4577 7.16619 9.99992 7.16675C9.54159 7.16675 9.14909 7.33008 8.82242 7.65675C8.49575 7.98341 8.3327 8.37564 8.33325 8.83341C8.33325 9.29175 8.49659 9.68425 8.82325 10.0109C9.14992 10.3376 9.54214 10.5006 9.99992 10.5001ZM9.99992 18.8334C7.76381 16.9306 6.09381 15.1634 4.98992 13.5317C3.88603 11.9001 3.33381 10.3895 3.33325 9.00008C3.33325 6.91675 4.00353 5.25703 5.34409 4.02091C6.68464 2.7848 8.23659 2.16675 9.99992 2.16675C11.7638 2.16675 13.316 2.7848 14.6566 4.02091C15.9971 5.25703 16.6671 6.91675 16.6666 9.00008C16.6666 10.389 16.1144 11.8995 15.0099 13.5317C13.9055 15.164 12.2355 16.9312 9.99992 18.8334Z" fill="white"/>
</svg>
