<svg width="18" height="18" viewBox="0 0 18 18" fill="none" xmlns="http://www.w3.org/2000/svg">
<path fill-rule="evenodd" clip-rule="evenodd" d="M12.3405 7.26415C12.3405 10.0679 10.0677 12.3408 7.2639 12.3408C4.46015 12.3408 2.18726 10.0679 2.18726 7.26415C2.18726 4.46039 4.46015 2.1875 7.2639 2.1875C10.0677 2.1875 12.3405 4.46039 12.3405 7.26415ZM11.4438 12.975C10.2726 13.8337 8.82748 14.3408 7.2639 14.3408C3.35558 14.3408 0.187256 11.1725 0.187256 7.26415C0.187256 3.35582 3.35558 0.1875 7.2639 0.1875C11.1722 0.1875 14.3405 3.35582 14.3405 7.26415C14.3405 8.88742 13.794 10.383 12.8749 11.577L17.7612 16.3471C18.1564 16.7329 18.164 17.366 17.7782 17.7612C17.3924 18.1564 16.7593 18.164 16.3641 17.7782L11.4438 12.975Z" fill="#0A0000"/>
</svg>
