<svg width="103" height="73" viewBox="0 0 103 73" fill="none" xmlns="http://www.w3.org/2000/svg">
<path fill-rule="evenodd" clip-rule="evenodd" d="M13.1867 2.10978C7.92964 2.10978 3.66791 5.17385 3.66791 8.95358V64.0462C3.66791 67.6872 7.62269 70.6642 12.6124 70.8777L72.3838 27.9036C72.6516 27.7111 73.0147 27.6029 73.3934 27.6029C73.7721 27.6029 74.1353 27.7111 74.403 27.9036L99.3323 45.8271V8.95358C99.3323 5.17385 95.0705 2.10978 89.8134 2.10978H13.1867ZM102.188 48.3034V8.95358C102.188 4.03994 96.6476 0.0566406 89.8134 0.0566406H13.1867C6.3525 0.0566406 0.812256 4.03994 0.812256 8.95358V64.0462C0.812256 68.9598 6.3525 72.9431 13.1867 72.9431H89.8134C96.6476 72.9431 102.188 68.9598 102.188 64.0462V48.3074C102.188 48.3061 102.188 48.3048 102.188 48.3034ZM99.3323 48.7307L73.3934 30.0813L16.6338 70.89H89.8134C95.0705 70.89 99.3323 67.8259 99.3323 64.0462V48.7307ZM32.3434 17.8505C28.5977 17.8505 25.5612 20.0337 25.5612 22.7267C25.5612 25.4198 28.5977 27.6029 32.3434 27.6029C36.0891 27.6029 39.1256 25.4198 39.1256 22.7267C39.1256 20.0337 36.0891 17.8505 32.3434 17.8505ZM22.7056 22.7267C22.7056 18.8998 27.0206 15.7974 32.3434 15.7974C37.6662 15.7974 41.9812 18.8998 41.9812 22.7267C41.9812 26.5537 37.6662 29.6561 32.3434 29.6561C27.0206 29.6561 22.7056 26.5537 22.7056 22.7267Z" fill="#111827"/>
</svg>
