<svg width="32" height="33" viewBox="0 0 32 33" fill="none" xmlns="http://www.w3.org/2000/svg">
<path d="M28.2344 9.92847C27.9531 8.80347 27.0625 7.91284 25.9844 7.63159C23.9688 7.06909 16 7.06909 16 7.06909C16 7.06909 7.98438 7.06909 5.96875 7.63159C4.89062 7.91284 4 8.80347 3.71875 9.92847C3.15625 11.8972 3.15625 16.116 3.15625 16.116C3.15625 16.116 3.15625 20.2878 3.71875 22.3035C4 23.4285 4.89062 24.2722 5.96875 24.5535C7.98438 25.0691 16 25.0691 16 25.0691C16 25.0691 23.9688 25.0691 25.9844 24.5535C27.0625 24.2722 27.9531 23.4285 28.2344 22.3035C28.7969 20.2878 28.7969 16.116 28.7969 16.116C28.7969 16.116 28.7969 11.8972 28.2344 9.92847ZM13.375 19.9128V12.3191L20.0312 16.116L13.375 19.9128Z" fill="white"/>
</svg>
